# xmcd CD database file
#
# Track frame offsets:
#	225
#	10123
#	24044
#	42860
#	57296
#	70626
#	87658
#	98971
#	113442
#	131934
#
# Disc length: 1898 seconds
#
# Revision: 0
# Processed by: cddbd v1.5.1PL0 Copyright (c) Steve Scherf et al.
# Submitted via: CDex 1.51
#
DISCID=7807670a
DTITLE=David Frizzell - Takes To The Road
DYEAR=1900
DGENRE=Country
TTITLE0=6 Days On The Road
TTITLE1=Truck Driver's Blues
TTITLE2=I'm Gonna Hire A Wino To Decorate Our House
TTITLE3=18 Wheels Hummin' Home Sweet Home
TTITLE4=California Turnarounds
TTITLE5=Ballad Of The Bootlegger King
TTITLE6=Set 'Em Up Joe
TTITLE7=Endless Black Ribbon
TTITLE8=Home, Home On The Road
TTITLE9=Midnight Run To Dixie
EXTD=
EXTT0=
EXTT1=
EXTT2=
EXTT3=
EXTT4=
EXTT5=
EXTT6=
EXTT7=
EXTT8=
EXTT9=
PLAYORDER=
